<?xml version="1.0" encoding="UTF-8"?>
<svg version="1.1" xmlns="http://www.w3.org/2000/svg" width="128" height="128">
<path d="M0 0 C42.24 0 84.48 0 128 0 C128 42.24 128 84.48 128 128 C85.76 128 43.52 128 0 128 C0 85.76 0 43.52 0 0 Z " fill="#F57A17" transform="translate(0,0)"/>
<path d="M0 0 C2.72298756 -0.02271861 5.43132467 0.00162028 8.15234375 0.09765625 C7.49234375 2.40765625 6.83234375 4.71765625 6.15234375 7.09765625 C3.84234375 7.42765625 1.53234375 7.75765625 -0.84765625 8.09765625 C-1.10160156 8.96648438 -1.35554688 9.8353125 -1.6171875 10.73046875 C-2.13345703 12.45910156 -2.13345703 12.45910156 -2.66015625 14.22265625 C-2.99660156 15.35960937 -3.33304687 16.4965625 -3.6796875 17.66796875 C-4.81337261 20.99698388 -6.20185825 23.99469039 -7.84765625 27.09765625 C-10.15765625 27.09765625 -12.46765625 27.09765625 -14.84765625 27.09765625 C-13.75868958 21.34003459 -12.55429332 15.70517806 -10.84765625 10.09765625 C-13.15765625 10.09765625 -15.46765625 10.09765625 -17.84765625 10.09765625 C-20.81765625 16.03765625 -23.78765625 21.97765625 -26.84765625 28.09765625 C-29.48765625 28.09765625 -32.12765625 28.09765625 -34.84765625 28.09765625 C-35.34265625 24.63265625 -35.34265625 24.63265625 -35.84765625 21.09765625 C-37.49765625 24.06765625 -39.14765625 27.03765625 -40.84765625 30.09765625 C-43.15765625 30.09765625 -45.46765625 30.09765625 -47.84765625 30.09765625 C-47.84765625 23.16765625 -47.84765625 16.23765625 -47.84765625 9.09765625 C-48.17765625 10.08765625 -48.50765625 11.07765625 -48.84765625 12.09765625 C-49.89953125 12.15953125 -50.95140625 12.22140625 -52.03515625 12.28515625 C-56.57497656 13.25265894 -58.12098012 14.37946152 -60.84765625 18.09765625 C-61.26655843 21.30827413 -61.26655843 21.30827413 -60.84765625 24.09765625 C-56.68627362 24.17925199 -52.90040785 24.08014149 -48.84765625 23.09765625 C-48.84765625 25.40765625 -48.84765625 27.71765625 -48.84765625 30.09765625 C-52.35112888 32.24439193 -55.27749907 32.42598014 -59.34765625 32.47265625 C-60.47171875 32.50101563 -61.59578125 32.529375 -62.75390625 32.55859375 C-66.49892727 32.00062345 -67.61195754 31.10319461 -69.84765625 28.09765625 C-70.59765625 25.84765625 -70.59765625 25.84765625 -70.84765625 24.09765625 C-71.07839844 24.74992187 -71.30914062 25.4021875 -71.546875 26.07421875 C-74.18272087 33.13786894 -76.39296182 38.17838157 -83.22265625 41.97265625 C-86.97828832 43.13819724 -89.94080229 43.33685139 -93.84765625 43.09765625 C-93.84765625 39.79765625 -93.84765625 36.49765625 -93.84765625 33.09765625 C-92.79578125 33.20078125 -91.74390625 33.30390625 -90.66015625 33.41015625 C-86.76936422 33.09123887 -85.68511618 32.65777673 -83.09887695 29.87817383 C-80.43024847 26.08065041 -79.07285253 21.62980475 -77.53515625 17.28515625 C-77.17615234 16.30611328 -76.81714844 15.32707031 -76.44726562 14.31835938 C-75.56823631 11.91567926 -74.70222744 9.50912046 -73.84765625 7.09765625 C-71.20765625 6.76765625 -68.56765625 6.43765625 -65.84765625 6.09765625 C-66.17765625 8.40765625 -66.50765625 10.71765625 -66.84765625 13.09765625 C-66.29335937 12.60394531 -65.7390625 12.11023437 -65.16796875 11.6015625 C-64.44351563 10.96089844 -63.7190625 10.32023437 -62.97265625 9.66015625 C-61.89371094 8.70302734 -61.89371094 8.70302734 -60.79296875 7.7265625 C-56.86315939 4.435939 -53.1216763 4.98346204 -48.22265625 5.03515625 C-47.42085937 5.03966797 -46.6190625 5.04417969 -45.79296875 5.04882812 C-43.81116619 5.06062457 -41.82940192 5.0785602 -39.84765625 5.09765625 C-39.35265625 9.05765625 -39.35265625 9.05765625 -38.84765625 13.09765625 C-37.19765625 9.79765625 -35.54765625 6.49765625 -33.84765625 3.09765625 C-31.86765625 3.09765625 -29.88765625 3.09765625 -27.84765625 3.09765625 C-27.35265625 7.05765625 -27.35265625 7.05765625 -26.84765625 11.09765625 C-26.69554688 10.47117187 -26.5434375 9.8446875 -26.38671875 9.19921875 C-25.24312934 6.10077566 -24.26784642 4.38408806 -21.84765625 2.09765625 C-14.98842186 -0.26153551 -7.16433265 0.18183585 0 0 Z " fill="#FCF4F1" transform="translate(105.84765625,36.90234375)"/>
<path d="M0 0 C1.52147836 0.01006849 3.04296331 0.01918738 4.56445312 0.02734375 C8.2306096 0.04900818 11.89650983 0.08331551 15.5625 0.125 C15.5625 0.455 15.5625 0.785 15.5625 1.125 C14.58192627 1.21998779 13.60135254 1.31497559 12.59106445 1.4128418 C-14.19014991 4.04141576 -38.43038138 8.81136956 -64.02172852 17.35644531 C-66.1485594 18.0330763 -68.26586124 18.61372914 -70.4375 19.125 C-70.4375 17.145 -70.4375 15.165 -70.4375 13.125 C-62.30077146 9.45173342 -54.33719448 6.84967738 -45.625 4.9375 C-44.56474609 4.69064453 -43.50449219 4.44378906 -42.41210938 4.18945312 C-28.22065438 0.98548225 -14.48386895 -0.16985177 0 0 Z " fill="#FBEBE4" transform="translate(94.4375,65.875)"/>
<path d="M0 0 C0.33 0 0.66 0 1 0 C1.09765625 6.15234375 1.09765625 6.15234375 1 8 C0.67 8.33 0.34 8.66 0 9 C-0.36760731 11.32817964 -0.70241581 13.6618385 -1 16 C-5.11560195 17.99544337 -8.45049584 18.26247139 -13 18 C-14 17 -14 17 -14.375 14.25 C-13.88344974 9.98989775 -12.19251574 8.72531832 -9 6 C-8.67 5.67 -8.34 5.34 -8 5 C-5.66702567 4.95907063 -3.33294775 4.95758277 -1 5 C-0.67 3.35 -0.34 1.7 0 0 Z " fill="#F37919" transform="translate(58,44)"/>
<path d="M0 0 C2.64 0 5.28 0 8 0 C5.35261084 1.4606285 4.10551666 2 1 2 C-1.64 7.28 -4.28 12.56 -7 18 C-4.36 18.33 -1.72 18.66 1 19 C1 19.33 1 19.66 1 20 C-0.14831299 20.12060791 -0.14831299 20.12060791 -1.31982422 20.24365234 C-4.83873997 20.61599347 -8.35685489 20.99544908 -11.875 21.375 C-13.07898438 21.50132813 -14.28296875 21.62765625 -15.5234375 21.7578125 C-21.72947298 22.43238157 -27.77901904 23.29830357 -33.88232422 24.60302734 C-36.65283941 25.12237916 -39.31154982 25.19713975 -42.125 25.125 C-43.52105469 25.09792969 -43.52105469 25.09792969 -44.9453125 25.0703125 C-45.62335937 25.04710938 -46.30140625 25.02390625 -47 25 C-47 24.67 -47 24.34 -47 24 C-45.77023438 23.80083984 -45.77023438 23.80083984 -44.515625 23.59765625 C-43.43796875 23.42105469 -42.3603125 23.24445313 -41.25 23.0625 C-40.18265625 22.88847656 -39.1153125 22.71445313 -38.015625 22.53515625 C-35.65857781 22.11687197 -33.322399 21.58059975 -31 21 C-31 16.38 -31 11.76 -31 7 C-30.67 7 -30.34 7 -30 7 C-30 11.62 -30 16.24 -30 21 C-26.66484281 21.2180773 -26.66484281 21.2180773 -23 20 C-20.86943923 17.2049574 -19.40764891 14.21099637 -18 11 C-17.67 11 -17.34 11 -17 11 C-17 13.64 -17 16.28 -17 19 C-14.36 19 -11.72 19 -9 19 C-8.74476562 18.15179688 -8.48953125 17.30359375 -8.2265625 16.4296875 C-6.91505516 12.76247907 -5.25356877 9.53425443 -3.375 6.125 C-2.74335937 4.97257812 -2.11171875 3.82015625 -1.4609375 2.6328125 C-0.97882813 1.76398437 -0.49671875 0.89515625 0 0 Z " fill="#E46715" transform="translate(88,46)"/>
<path d="M0 0 C0.33 0 0.66 0 1 0 C1.28875 1.11375 1.5775 2.2275 1.875 3.375 C2.69241329 7.00291092 2.69241329 7.00291092 5 9 C7.43252661 9.46162427 7.43252661 9.46162427 10.125 9.625 C11.03507812 9.69976562 11.94515625 9.77453125 12.8828125 9.8515625 C13.93082031 9.92503906 13.93082031 9.92503906 15 10 C14.67 10.99 14.34 11.98 14 13 C11.15932968 13.91233207 8.46647739 14.62721362 5.5625 15.25 C4.77294922 15.435625 3.98339844 15.62125 3.16992188 15.8125 C-2.72260802 17.13869599 -2.72260802 17.13869599 -5 16 C-4.34309381 12.21760329 -3.279869 8.78158474 -1.9375 5.1875 C-1.57527344 4.21167969 -1.21304688 3.23585937 -0.83984375 2.23046875 C-0.42412109 1.12638672 -0.42412109 1.12638672 0 0 Z " fill="#F17C27" transform="translate(35,59)"/>
<path d="M0 0 C0.33 0 0.66 0 1 0 C1 4.62 1 9.24 1 14 C4.3 14 7.6 14 11 14 C11 14.33 11 14.66 11 15 C1.92550815 16.91281635 -6.66824711 18.5338079 -16 18 C-16 17.67 -16 17.34 -16 17 C-14.77023438 16.80083984 -14.77023438 16.80083984 -13.515625 16.59765625 C-12.43796875 16.42105469 -11.3603125 16.24445313 -10.25 16.0625 C-9.18265625 15.88847656 -8.1153125 15.71445313 -7.015625 15.53515625 C-4.65857781 15.11687197 -2.322399 14.58059975 0 14 C0 9.38 0 4.76 0 0 Z " fill="#E66308" transform="translate(57,53)"/>
<path d="M0 0 C0.33 0 0.66 0 1 0 C1 2.64 1 5.28 1 8 C2.65 8 4.3 8 6 8 C6 8.33 6 8.66 6 9 C4.35 9 2.7 9 1 9 C1 9.66 1 10.32 1 11 C-1.97 10.505 -1.97 10.505 -5 10 C-3.35 6.7 -1.7 3.4 0 0 Z " fill="#EF7C2A" transform="translate(70,57)"/>
<path d="M0 0 C0.33 0 0.66 0 1 0 C1.09765625 6.15234375 1.09765625 6.15234375 1 8 C0.67 8.33 0.34 8.66 0 9 C-0.36760731 11.32817964 -0.70241581 13.6618385 -1 16 C-1.99 15.34 -2.98 14.68 -4 14 C-3.34 14 -2.68 14 -2 14 C-2 11.69 -2 9.38 -2 7 C-4.31 7 -6.62 7 -9 7 C-8.67 6.34 -8.34 5.68 -8 5 C-5.69 5 -3.38 5 -1 5 C-0.67 3.35 -0.34 1.7 0 0 Z " fill="#EC7A2E" transform="translate(58,44)"/>
<path d="M0 0 C0.33 0.66 0.66 1.32 1 2 C1.66 2.33 2.32 2.66 3 3 C-3.6276327 6.8741903 -8.29711007 8.6212008 -16 8 C-16 7.67 -16 7.34 -16 7 C-15.12988281 6.85304688 -15.12988281 6.85304688 -14.2421875 6.703125 C-8.55605118 5.61468966 -4.19345018 4.19345018 0 0 Z " fill="#DF6110" transform="translate(29,73)"/>
<path d="M0 0 C7.5 -0.375 7.5 -0.375 12 3 C6.06 3.495 6.06 3.495 0 4 C0 2.66666667 0 1.33333333 0 0 Z " fill="#F4CFC0" transform="translate(77,66)"/>
<path d="M0 0 C0.33 0 0.66 0 1 0 C1.309375 1.11375 1.61875 2.2275 1.9375 3.375 C2.82326483 6.7945155 2.82326483 6.7945155 4 9 C2.35 9 0.7 9 -1 9 C-2.0326802 6.21176345 -2.04509293 5.1322726 -1.0625 2.25 C-0.711875 1.5075 -0.36125 0.765 0 0 Z " fill="#EE8032" transform="translate(35,59)"/>
<path d="M0 0 C0.99 0 1.98 0 3 0 C3 1.65 3 3.3 3 5 C4.32 5.33 5.64 5.66 7 6 C5.0085944 6.38133299 3.00720923 6.71325582 1 7 C0 6 0 6 -0.0625 2.9375 C-0.041875 1.968125 -0.02125 0.99875 0 0 Z " fill="#F58B43" transform="translate(44,55)"/>
</svg>
